<svg width="106" height="54" viewBox="0 0 106 54" fill="none" xmlns="http://www.w3.org/2000/svg">
<path fill-rule="evenodd" clip-rule="evenodd" d="M53.0001 15.7499C53.1651 15.7499 53.3289 15.7499 53.4914 15.7499C50.1778 18.8289 49.5351 23.8347 51.9635 27.6508C54.3919 31.4669 59.1988 33.005 63.3914 31.3074C61.2255 36.5188 55.5336 39.3191 50.0834 37.8545C44.6332 36.39 41.1115 31.114 41.8494 25.5189C42.5873 19.9238 47.3565 15.7413 53.0001 15.7399V15.7499Z" stroke="#E1DEF5" stroke-opacity="0.9" stroke-width="1.5" stroke-linecap="round" stroke-linejoin="round"/>
<path d="M59.25 17C59.25 18.3807 60.3693 19.5 61.75 19.5C60.3693 19.5 59.25 20.6193 59.25 22C59.25 20.6193 58.1307 19.5 56.75 19.5C58.1307 19.5 59.25 18.3807 59.25 17" stroke="#E1DEF5" stroke-opacity="0.9" stroke-width="1.5" stroke-linecap="round" stroke-linejoin="round"/>
<path d="M61.75 25C61.3358 25 61 25.3358 61 25.75C61 26.1642 61.3358 26.5 61.75 26.5V25ZM64.25 26.5C64.6642 26.5 65 26.1642 65 25.75C65 25.3358 64.6642 25 64.25 25V26.5ZM63.75 24.5C63.75 24.0858 63.4142 23.75 63 23.75C62.5858 23.75 62.25 24.0858 62.25 24.5H63.75ZM62.25 27C62.25 27.4142 62.5858 27.75 63 27.75C63.4142 27.75 63.75 27.4142 63.75 27H62.25ZM61.75 26.5H64.25V25H61.75V26.5ZM62.25 24.5V27H63.75V24.5H62.25Z" fill="#E1DEF5" fill-opacity="0.9"/>
</svg>
