<svg width="106" height="54" viewBox="0 0 106 54" fill="none" xmlns="http://www.w3.org/2000/svg">
<circle cx="52.666" cy="27" r="5" stroke="#E1DEF5" stroke-opacity="0.9" stroke-width="1.5" stroke-linecap="round" stroke-linejoin="round"/>
<path d="M41.416 26.25C41.0018 26.25 40.666 26.5858 40.666 27C40.666 27.4142 41.0018 27.75 41.416 27.75V26.25ZM42.666 27.75C43.0802 27.75 43.416 27.4142 43.416 27C43.416 26.5858 43.0802 26.25 42.666 26.25V27.75ZM53.416 15.75C53.416 15.3358 53.0802 15 52.666 15C52.2518 15 51.916 15.3358 51.916 15.75H53.416ZM51.916 17C51.916 17.4142 52.2518 17.75 52.666 17.75C53.0802 17.75 53.416 17.4142 53.416 17H51.916ZM62.666 26.25C62.2518 26.25 61.916 26.5858 61.916 27C61.916 27.4142 62.2518 27.75 62.666 27.75V26.25ZM63.916 27.75C64.3302 27.75 64.666 27.4142 64.666 27C64.666 26.5858 64.3302 26.25 63.916 26.25V27.75ZM53.416 37C53.416 36.5858 53.0802 36.25 52.666 36.25C52.2518 36.25 51.916 36.5858 51.916 37H53.416ZM51.916 38.25C51.916 38.6642 52.2518 39 52.666 39C53.0802 39 53.416 38.6642 53.416 38.25H51.916ZM45.1963 18.4696C44.9034 18.1767 44.4285 18.1767 44.1356 18.4696C43.8427 18.7625 43.8427 19.2374 44.1356 19.5303L45.1963 18.4696ZM45.0106 20.4053C45.3035 20.6982 45.7784 20.6982 46.0713 20.4053C46.3642 20.1124 46.3642 19.6375 46.0713 19.3446L45.0106 20.4053ZM61.1964 19.5303C61.4893 19.2374 61.4893 18.7625 61.1964 18.4696C60.9035 18.1767 60.4286 18.1767 60.1357 18.4696L61.1964 19.5303ZM59.2607 19.3446C58.9679 19.6375 58.9679 20.1124 59.2607 20.4053C59.5536 20.6982 60.0285 20.6982 60.3214 20.4053L59.2607 19.3446ZM60.3214 33.5947C60.0285 33.3018 59.5536 33.3018 59.2607 33.5947C58.9679 33.8876 58.9679 34.3625 59.2607 34.6554L60.3214 33.5947ZM60.1357 35.5304C60.4286 35.8233 60.9035 35.8233 61.1964 35.5304C61.4893 35.2375 61.4893 34.7626 61.1964 34.4697L60.1357 35.5304ZM46.0713 34.6554C46.3642 34.3625 46.3642 33.8876 46.0713 33.5947C45.7784 33.3018 45.3035 33.3018 45.0106 33.5947L46.0713 34.6554ZM44.1356 34.4697C43.8427 34.7626 43.8427 35.2375 44.1356 35.5304C44.4285 35.8233 44.9034 35.8233 45.1963 35.5304L44.1356 34.4697ZM41.416 27.75H42.666V26.25H41.416V27.75ZM51.916 15.75V17H53.416V15.75H51.916ZM62.666 27.75H63.916V26.25H62.666V27.75ZM51.916 37V38.25H53.416V37H51.916ZM44.1356 19.5303L45.0106 20.4053L46.0713 19.3446L45.1963 18.4696L44.1356 19.5303ZM60.1357 18.4696L59.2607 19.3446L60.3214 20.4053L61.1964 19.5303L60.1357 18.4696ZM59.2607 34.6554L60.1357 35.5304L61.1964 34.4697L60.3214 33.5947L59.2607 34.6554ZM45.0106 33.5947L44.1356 34.4697L45.1963 35.5304L46.0713 34.6554L45.0106 33.5947Z" fill="#E1DEF5" fill-opacity="0.9"/>
</svg>
