<svg width="106" height="54" viewBox="0 0 106 54" fill="none" xmlns="http://www.w3.org/2000/svg">
<circle cx="52.667" cy="27" r="5" stroke="#2F2B3D" stroke-opacity="0.9" stroke-width="1.5" stroke-linecap="round" stroke-linejoin="round"/>
<path d="M41.417 26.25C41.0028 26.25 40.667 26.5858 40.667 27C40.667 27.4142 41.0028 27.75 41.417 27.75V26.25ZM42.667 27.75C43.0812 27.75 43.417 27.4142 43.417 27C43.417 26.5858 43.0812 26.25 42.667 26.25V27.75ZM53.417 15.75C53.417 15.3358 53.0812 15 52.667 15C52.2528 15 51.917 15.3358 51.917 15.75H53.417ZM51.917 17C51.917 17.4142 52.2528 17.75 52.667 17.75C53.0812 17.75 53.417 17.4142 53.417 17H51.917ZM62.667 26.25C62.2528 26.25 61.917 26.5858 61.917 27C61.917 27.4142 62.2528 27.75 62.667 27.75V26.25ZM63.917 27.75C64.3312 27.75 64.667 27.4142 64.667 27C64.667 26.5858 64.3312 26.25 63.917 26.25V27.75ZM53.417 37C53.417 36.5858 53.0812 36.25 52.667 36.25C52.2528 36.25 51.917 36.5858 51.917 37H53.417ZM51.917 38.25C51.917 38.6642 52.2528 39 52.667 39C53.0812 39 53.417 38.6642 53.417 38.25H51.917ZM45.1973 18.4696C44.9044 18.1767 44.4295 18.1767 44.1366 18.4696C43.8437 18.7625 43.8437 19.2374 44.1366 19.5303L45.1973 18.4696ZM45.0116 20.4053C45.3045 20.6982 45.7794 20.6982 46.0723 20.4053C46.3652 20.1124 46.3652 19.6375 46.0723 19.3446L45.0116 20.4053ZM61.1974 19.5303C61.4903 19.2374 61.4903 18.7625 61.1974 18.4696C60.9045 18.1767 60.4296 18.1767 60.1367 18.4696L61.1974 19.5303ZM59.2617 19.3446C58.9688 19.6375 58.9688 20.1124 59.2617 20.4053C59.5546 20.6982 60.0295 20.6982 60.3224 20.4053L59.2617 19.3446ZM60.3224 33.5947C60.0295 33.3018 59.5546 33.3018 59.2617 33.5947C58.9688 33.8876 58.9688 34.3625 59.2617 34.6554L60.3224 33.5947ZM60.1367 35.5304C60.4296 35.8233 60.9045 35.8233 61.1974 35.5304C61.4903 35.2375 61.4903 34.7626 61.1974 34.4697L60.1367 35.5304ZM46.0723 34.6554C46.3652 34.3625 46.3652 33.8876 46.0723 33.5947C45.7794 33.3018 45.3045 33.3018 45.0116 33.5947L46.0723 34.6554ZM44.1366 34.4697C43.8437 34.7626 43.8437 35.2375 44.1366 35.5304C44.4295 35.8233 44.9044 35.8233 45.1973 35.5304L44.1366 34.4697ZM41.417 27.75H42.667V26.25H41.417V27.75ZM51.917 15.75V17H53.417V15.75H51.917ZM62.667 27.75H63.917V26.25H62.667V27.75ZM51.917 37V38.25H53.417V37H51.917ZM44.1366 19.5303L45.0116 20.4053L46.0723 19.3446L45.1973 18.4696L44.1366 19.5303ZM60.1367 18.4696L59.2617 19.3446L60.3224 20.4053L61.1974 19.5303L60.1367 18.4696ZM59.2617 34.6554L60.1367 35.5304L61.1974 34.4697L60.3224 33.5947L59.2617 34.6554ZM45.0116 33.5947L44.1366 34.4697L45.1973 35.5304L46.0723 34.6554L45.0116 33.5947Z" fill="#2F2B3D" fill-opacity="0.9"/>
</svg>
