<svg width="38" height="38" viewBox="0 0 38 38" fill="none" xmlns="http://www.w3.org/2000/svg">
<g id="Lightbulb">
<path id="Vector" opacity="0.2" d="M11.6822 24.7891C10.2684 23.6898 9.12342 22.2832 8.33388 20.6759C7.54435 19.0685 7.13099 17.3025 7.12513 15.5117C7.09544 9.06954 12.2759 3.71095 18.7181 3.56251C21.2113 3.50341 23.6599 4.23078 25.7166 5.64147C27.7732 7.05217 29.3335 9.07457 30.1761 11.4219C31.0188 13.7691 31.101 16.3221 30.4112 18.7188C29.7214 21.1154 28.2945 23.2341 26.3329 24.7742C25.8996 25.1092 25.5486 25.5388 25.3068 26.0301C25.065 26.5215 24.9387 27.0617 24.9376 27.6094V28.5C24.9376 28.815 24.8125 29.117 24.5898 29.3397C24.3671 29.5624 24.0651 29.6875 23.7501 29.6875H14.2501C13.9352 29.6875 13.6331 29.5624 13.4104 29.3397C13.1877 29.117 13.0626 28.815 13.0626 28.5V27.6094C13.0589 27.0658 12.9329 26.5301 12.6939 26.0418C12.4549 25.5536 12.1091 25.1255 11.6822 24.7891Z" fill="#00BAD1"/>
<path id="Union" fill-rule="evenodd" clip-rule="evenodd" d="M25.1509 6.46609C23.2675 5.17419 21.0251 4.50807 18.7418 4.5622L18.7411 4.56221C18.4983 4.56781 18.2574 4.58151 18.0187 4.60305L18.6951 2.56275C21.398 2.49881 24.0526 3.28743 26.2822 4.8168C28.512 6.34629 30.2037 8.53899 31.1173 11.0839C32.031 13.6289 32.1201 16.3969 31.3722 18.9954C30.6243 21.5938 29.0772 23.8909 26.9505 25.5607L26.9445 25.5654L26.9445 25.5654C26.6318 25.8071 26.3785 26.1171 26.204 26.4717C26.0295 26.8263 25.9384 27.2161 25.9376 27.6113V28.5C25.9376 29.0801 25.7072 29.6365 25.2969 30.0468C24.8867 30.457 24.3303 30.6875 23.7501 30.6875H14.2501C13.67 30.6875 13.1136 30.457 12.7033 30.0468C12.2931 29.6365 12.0626 29.0801 12.0626 28.5V27.6131C12.0595 27.2206 11.9683 26.8339 11.7957 26.4815C11.6232 26.1289 11.3737 25.8196 11.0656 25.5764L11.7414 23.5378C11.9208 23.6976 12.1057 23.8517 12.296 23.9996L11.6821 24.7891L12.301 24.0035C12.8459 24.4328 13.2871 24.9792 13.5921 25.6022C13.8971 26.2252 14.0579 26.9089 14.0626 27.6025L14.0627 27.6094L14.0626 28.5C14.0626 28.5497 14.0824 28.5974 14.1175 28.6326C14.1527 28.6677 14.2004 28.6875 14.2501 28.6875H23.7501C23.7999 28.6875 23.8475 28.6677 23.8827 28.6326C23.9179 28.5974 23.9376 28.5497 23.9376 28.5V27.6094L23.9376 27.6074C23.939 26.9073 24.1004 26.2167 24.4096 25.5885C24.7181 24.9616 25.1657 24.4133 25.7181 23.9855C27.5131 22.5752 28.8188 20.6359 29.4502 18.4422C30.082 16.2473 30.0067 13.9093 29.235 11.7597C28.4633 9.61009 27.0344 7.75799 25.1509 6.46609ZM11.7414 23.5378L11.7414 23.5378L18.0187 4.60305L18.018 4.6031L18.6944 2.56276C11.7043 2.72418 6.09331 8.53234 6.12513 15.5156C6.13159 17.458 6.57998 19.3733 7.43632 21.1167C8.29225 22.8593 9.53332 24.3843 11.0656 25.5764L11.7414 23.5378ZM11.7414 23.5378C10.7009 22.6109 9.84781 21.4898 9.23145 20.235C8.50882 18.7638 8.13049 17.1475 8.12512 15.5084L8.12512 15.5071C8.09905 9.84987 12.4637 5.10456 18.018 4.6031L11.7414 23.5378ZM12.0627 34.4375C12.0627 33.8852 12.5104 33.4375 13.0627 33.4375H24.9377C25.49 33.4375 25.9377 33.8852 25.9377 34.4375C25.9377 34.9898 25.49 35.4375 24.9377 35.4375H13.0627C12.5104 35.4375 12.0627 34.9898 12.0627 34.4375ZM20.3697 7.44532C19.8252 7.35302 19.3089 7.71961 19.2166 8.26412C19.1243 8.80864 19.4909 9.32489 20.0354 9.41719C21.2827 9.62862 22.4336 10.222 23.3292 11.1154C24.2249 12.0087 24.8212 13.1581 25.0358 14.4048C25.1295 14.9491 25.6467 15.3144 26.191 15.2207C26.7353 15.127 27.1005 14.6098 27.0068 14.0655C26.722 12.4107 25.9305 10.8851 24.7417 9.69934C23.5528 8.51353 22.0252 7.72596 20.3697 7.44532Z" fill="#00BAD1"/>
</g>
</svg>
