<svg width="43" height="42" viewBox="0 0 43 42" fill="none" xmlns="http://www.w3.org/2000/svg">
<path opacity="0.2" fill-rule="evenodd" clip-rule="evenodd" d="M35.2623 24.3473L30.1107 18.1621C30.3076 21.952 29.3724 26.3652 26.4849 31.4019L31.4068 35.3394C31.5818 35.4784 31.7894 35.5704 32.01 35.6067C32.2305 35.643 32.4566 35.6224 32.6669 35.5468C32.8773 35.4712 33.0648 35.3432 33.2118 35.1748C33.3588 35.0065 33.4603 34.8034 33.5068 34.5848L35.5248 25.4629C35.5734 25.2695 35.575 25.0672 35.5293 24.8731C35.4836 24.679 35.3921 24.4987 35.2623 24.3473ZM7.30603 24.4457L12.4576 18.277C12.2607 22.0668 13.1959 26.4801 16.0834 31.5004L11.1615 35.4379C10.9876 35.5769 10.7812 35.6693 10.5617 35.7065C10.3422 35.7437 10.1169 35.7245 9.9069 35.6507C9.6969 35.5769 9.50912 35.4509 9.36123 35.2845C9.21334 35.1181 9.11019 34.9168 9.0615 34.6996L7.04353 25.5613C6.99488 25.3679 6.99333 25.1657 7.039 24.9716C7.08468 24.7775 7.17625 24.5971 7.30603 24.4457Z" fill="#7367F0"/>
<path fill-rule="evenodd" clip-rule="evenodd" d="M19.8811 2.47353C20.2896 2.13596 20.8031 1.95117 21.3333 1.95117C21.8651 1.95117 22.38 2.13707 22.7891 2.47657C24.3981 3.7867 27.8808 7.0357 29.8053 12.0381C30.4659 13.7554 30.9381 15.6673 31.0933 17.7625L36.1251 23.8008C36.3563 24.0724 36.5195 24.3951 36.6012 24.7424C36.6822 25.0868 36.6808 25.4453 36.597 25.7889L34.5817 34.9151L34.581 34.9182C34.4952 35.3009 34.3135 35.6555 34.0529 35.9487C33.7924 36.2418 33.4615 36.4639 33.0915 36.5939C32.7215 36.724 32.3245 36.7579 31.9378 36.6923C31.5511 36.6267 31.1875 36.4638 30.881 36.219L30.8806 36.2186L26.2326 32.5002H16.4341L11.7862 36.2186L11.7857 36.219C11.4793 36.4638 11.1156 36.6267 10.729 36.6923C10.3423 36.7579 9.94525 36.724 9.57524 36.5939C9.20523 36.4639 8.87438 36.2418 8.61381 35.9487C8.35324 35.6555 8.17151 35.3009 8.08572 34.9182L8.08502 34.9151L6.06973 25.7889C5.98601 25.4453 5.98455 25.0868 6.06559 24.7424C6.14733 24.395 6.31065 24.072 6.54198 23.8004L11.4767 17.8912C11.6193 15.7424 12.1008 13.7842 12.7825 12.029C14.726 7.02537 18.2534 3.77698 19.8811 2.47353ZM29.1238 18.3076C29.1125 18.2387 29.1086 18.169 29.1118 18.0996C28.9861 16.1202 28.5469 14.3374 27.9387 12.7563C26.1899 8.21065 22.9998 5.22661 21.5224 4.02428L21.5125 4.01626L21.5126 4.01619C21.4623 3.97418 21.3988 3.95117 21.3333 3.95117C21.2678 3.95117 21.2043 3.97418 21.154 4.01619L21.1377 4.02954C19.645 5.22365 16.4124 8.20744 14.6468 12.7531C14.0147 14.3804 13.5649 16.2219 13.4576 18.2718C13.4578 18.3084 13.456 18.345 13.4522 18.3815C13.2924 21.8411 14.1096 25.8898 16.6664 30.5002H25.9943C28.5166 25.8569 29.3045 21.7836 29.1238 18.3076ZM34.5925 25.0857L31.0856 20.8775C30.8435 24.0045 29.8822 27.4702 27.8649 31.2448L32.1295 34.6565C32.1709 34.6896 32.22 34.7116 32.2723 34.7204C32.3245 34.7293 32.3782 34.7247 32.4282 34.7071C32.4782 34.6896 32.5229 34.6596 32.5581 34.6199C32.5931 34.5806 32.6176 34.533 32.6293 34.4817L32.6295 34.4807L34.6468 25.3455C34.6488 25.3361 34.6511 25.3266 34.6534 25.3172C34.6631 25.2789 34.6634 25.2389 34.6543 25.2004C34.6453 25.162 34.6272 25.1263 34.6015 25.0963L34.5924 25.0858L34.5925 25.0857ZM11.5084 20.9734L8.07358 25.0865L8.06535 25.0964L8.06529 25.0963C8.0396 25.1263 8.02147 25.162 8.01242 25.2004C8.00338 25.2389 8.00369 25.2789 8.01332 25.3172C8.01568 25.3266 8.01791 25.3361 8.02001 25.3455L10.0373 34.4807L10.0375 34.4817C10.0492 34.533 10.0737 34.5806 10.1086 34.6199C10.1439 34.6596 10.1886 34.6896 10.2386 34.7071C10.2886 34.7247 10.3422 34.7293 10.3945 34.7204C10.4467 34.7116 10.4959 34.6896 10.5373 34.6565L14.796 31.2495C12.7589 27.5131 11.7736 24.0779 11.5084 20.9734ZM17.7084 36.7502C17.7084 36.1979 18.1561 35.7502 18.7084 35.7502H23.9584C24.5107 35.7502 24.9584 36.1979 24.9584 36.7502C24.9584 37.3025 24.5107 37.7502 23.9584 37.7502H18.7084C18.1561 37.7502 17.7084 37.3025 17.7084 36.7502ZM23.3021 15.7502C23.3021 16.8375 22.4207 17.719 21.3334 17.719C20.2461 17.719 19.3646 16.8375 19.3646 15.7502C19.3646 14.6629 20.2461 13.7815 21.3334 13.7815C22.4207 13.7815 23.3021 14.6629 23.3021 15.7502Z" fill="#7367F0"/>
</svg>
