<svg id="wizardCheckoutAddress" width="60" height="60" viewBox="0 0 60 60" xmlns="http://www.w3.org/2000/svg">
<g fill-rule="nonzero">
    <path d="M60 8V0H0v8h2v40H1a1 1 0 1 0 0 2h28v2c0 .047.021.088.027.134C27.293 52.571 26 54.131 26 56c0 2.206 1.794 4 4 4s4-1.794 4-4c0-1.869-1.293-3.429-3.027-3.866.006-.046.027-.087.027-.134v-2h28a1 1 0 1 0 0-2h-1V8zM32 56c0 1.103-.897 2-2 2s-2-.897-2-2 .897-2 2-2 2 .897 2 2M2 2h56v4H2zm54 46H4V8h52z"/>
    <path d="M50 41H35a1 1 0 1 0 0 2h15a1 1 0 1 0 0-2m-40-5h10a1 1 0 1 0 0-2H10a1 1 0 1 0 0 2m20 0h15a1 1 0 1 0 0-2H30a1 1 0 1 0 0 2m-5.71-1.71c-.18.189-.29.439-.29.71 0 .26.11.52.29.71.19.18.45.29.71.29s.52-.11.71-.29c.18-.19.29-.45.29-.71s-.11-.521-.29-.71c-.37-.37-1.05-.37-1.42 0M30 41H15a1 1 0 1 0 0 2h15a1 1 0 1 0 0-2m-20 2c.26 0 .52-.11.71-.29.18-.19.29-.45.29-.71s-.11-.52-.29-.7c-.37-.38-1.04-.38-1.42-.01-.18.19-.29.45-.29.71s.11.52.29.71c.19.18.45.29.71.29m39.29-8.71c-.18.189-.29.439-.29.71 0 .26.11.52.29.71.19.18.45.29.71.29s.52-.11.71-.29c.18-.19.29-.45.29-.71s-.11-.521-.29-.71c-.37-.37-1.04-.37-1.42 0M50 20H35a1 1 0 1 0 0 2h15a1 1 0 1 0 0-2m0 7H40a1 1 0 1 0 0 2h10a1 1 0 1 0 0-2m-20 2h2a1 1 0 1 0 0-2h-2a1 1 0 1 0 0 2m0-14h15a1 1 0 1 0 0-2H30a1 1 0 1 0 0 2m20 0c.26 0 .52-.11.71-.29.19-.19.29-.45.29-.71s-.1-.521-.29-.71c-.38-.37-1.05-.37-1.42 0-.18.189-.29.45-.29.71s.11.52.29.71c.19.18.45.29.71.29m-19.71 5.29c-.18.189-.29.439-.29.71 0 .26.11.52.29.71.19.18.45.29.71.29s.52-.11.71-.29c.18-.19.29-.45.29-.71 0-.271-.11-.521-.29-.71-.38-.37-1.04-.37-1.42 0m5 7c-.18.189-.29.45-.29.71s.11.52.29.71c.19.18.45.29.71.29s.52-.11.71-.29c.18-.19.29-.45.29-.71s-.11-.521-.29-.71c-.37-.37-1.05-.37-1.42 0M25 13H9v16h16zm-2 14H11V15h12z"/>
  </g>
  <defs>
    <clipPath id="a">
      <path fill="#fff" d="M0 0h60v60H0z"/>
    </clipPath>
  </defs>
</svg>
