<svg id="wizardCart" width="60" height="60" viewBox="0 0 60 60" xmlns="http://www.w3.org/2000/svg">
<g fill-rule="nonzero">
  <path d="M60 41.695v-26.44h-9.153a1.016 1.016 0 1 0 0 2.033h7.12v22.373h-46.78V17.288h7.118a1.016 1.016 0 1 0 0-2.034h-7.119V7.12c0-.563-.454-1.017-1.017-1.017H7.991C7.537 4.352 5.958 3.05 4.068 3.05A4.07 4.07 0 0 0 0 7.119a4.07 4.07 0 0 0 4.068 4.068c1.89 0 3.469-1.302 3.923-3.051h1.162v39.661c0 .562.454 1.017 1.016 1.017h7.15c-1.245.927-2.065 2.399-2.065 4.067a5.09 5.09 0 0 0 5.085 5.085 5.09 5.09 0 0 0 5.085-5.085c0-1.668-.82-3.14-2.066-4.067h18.368c-1.245.927-2.065 2.399-2.065 4.067a5.09 5.09 0 0 0 5.085 5.085 5.09 5.09 0 0 0 5.084-5.085c0-1.668-.82-3.14-2.065-4.067h6.133a1.016 1.016 0 1 0 0-2.034H11.186v-5.085zM4.068 9.153a2.036 2.036 0 0 1-2.034-2.034c0-1.122.912-2.034 2.034-2.034.75 0 1.398.412 1.751 1.017h-.734a1.016 1.016 0 1 0 0 2.034h.734a2.03 2.03 0 0 1-1.751 1.017m16.271 46.78a3.055 3.055 0 0 1-3.05-3.052 3.055 3.055 0 0 1 3.05-3.05 3.055 3.055 0 0 1 3.05 3.05 3.055 3.055 0 0 1-3.05 3.051m24.407 0a3.055 3.055 0 0 1-3.051-3.052 3.055 3.055 0 0 1 3.05-3.05 3.055 3.055 0 0 1 3.052 3.05 3.055 3.055 0 0 1-3.051 3.051"/>
  <path d="M34.576 30.509c7.851 0 14.237-6.387 14.237-14.238 0-7.85-6.386-14.237-14.237-14.237-7.85 0-14.237 6.386-14.237 14.237S26.725 30.51 34.576 30.51m0-26.441c6.73 0 12.203 5.474 12.203 12.203 0 6.73-5.474 12.204-12.203 12.204S22.373 23 22.373 16.27 27.847 4.068 34.576 4.068" />
  <path d="M32.907 22.138c.067.054.14.086.215.122.03.015.058.04.09.05a.98.98 0 0 0 .762-.027c.05-.023.088-.068.135-.098.072-.048.149-.086.209-.154l.02-.022.001-.001.001-.002 8.112-9.127a1.016 1.016 0 1 0-1.519-1.35l-7.48 8.416-5.346-4.455a1.018 1.018 0 0 0-1.302 1.563z" />
</g>
</svg>
