<svg id="wizardPayment" width="60" height="60" viewBox="0 0 60 60" xmlns="http://www.w3.org/2000/svg">
    <g fill-rule="nonzero">
    <path d="M9 26h8V16H9zm2-8h4v6h-4zM9 38h8V28H9zm2-8h4v6h-4zM9 50h8V40H9zm2-8h4v6h-4zm25-17a1 1 0 0 0-1 1v9a1 1 0 1 0 2 0v-9a1 1 0 0 0-1-1m0 13a1 1 0 0 0-1 1v9a1 1 0 1 0 2 0v-9a1 1 0 0 0-1-1m-5-13a1 1 0 0 0-1 1v1a1 1 0 1 0 2 0v-1a1 1 0 0 0-1-1m0 5a1 1 0 0 0-1 1v2a1 1 0 1 0 2 0v-2a1 1 0 0 0-1-1m0 6a1 1 0 0 0-1 1v1a1 1 0 1 0 2 0v-1a1 1 0 0 0-1-1m0 5a1 1 0 0 0-1 1v2a1 1 0 1 0 2 0v-2a1 1 0 0 0-1-1m-.71 6.29c-.181.19-.29.45-.29.71 0 .27.109.52.29.71.189.18.45.29.71.29s.52-.11.71-.29c.18-.19.29-.44.29-.71 0-.26-.11-.52-.29-.71-.38-.37-1.03-.38-1.42 0"/>
    <path d="M48 2H0v7h3v44.783A4.22 4.22 0 0 0 7.217 58h33.566A4.22 4.22 0 0 0 45 53.783V9h3zm-5 51.783A2.22 2.22 0 0 1 40.783 56H7.217A2.22 2.22 0 0 1 5 53.783V7h4v7h8V7h9v11.745A2.26 2.26 0 0 0 28.255 21h9.49A2.26 2.26 0 0 0 40 18.745V7h3zM11 7h4v5h-4zm23 0v2h-2V7zm4 0v2.026c-.085-.01-.168-.026-.255-.026H36V7zm-9.745 12a.255.255 0 0 1-.255-.255v-3.771c.085.01.168.026.255.026H30v4zM32 15h1.745c.141 0 .255.114.255.255v3.49c0 .087.016.17.026.255H32zm4 3.745v-3.49A2.26 2.26 0 0 0 33.745 13h-5.49a.255.255 0 0 1-.255-.255v-1.49c0-.141.114-.255.255-.255h9.49c.141 0 .255.114.255.255v7.49a.255.255 0 0 1-.255.255h-1.49a.255.255 0 0 1-.255-.255M30 9h-1.745c-.087 0-.17.016-.255.026V7h2zm16-2h-1V5H3v2H2V4h44z"/>
    <path d="m59.707 34.293-5.999-5.999a1 1 0 0 0-1.416 0l-5.999 5.999a.999.999 0 1 0 1.414 1.414L52 31.414V57a1 1 0 1 0 2 0V31.414l4.293 4.293a.997.997 0 0 0 1.414 0 1 1 0 0 0 0-1.414"/>
  </g>
  <defs>
    <clipPath id="a">
      <path fill="#fff" d="M0 0h60v60H0z"/>
    </clipPath>
  </defs>
</svg>
