<svg width="17" height="17" viewBox="0 0 17 17" fill="none" xmlns="http://www.w3.org/2000/svg">
<path fill-rule="evenodd" clip-rule="evenodd" d="M8.19769 0.756836C3.7796 0.756836 0.197266 4.42846 0.197266 8.96084C0.197266 12.586 2.49024 15.6576 5.66898 16.7434C6.069 16.8184 6.21544 16.5648 6.21544 16.3469C6.21544 16.1505 6.2083 15.6362 6.20473 14.9504C3.97961 15.4469 3.50815 13.8504 3.50815 13.8504C3.14385 12.9039 2.61882 12.6503 2.61882 12.6503C1.89378 12.1396 2.6724 12.1503 2.6724 12.1503C3.47601 12.2074 3.89746 12.9968 3.89746 12.9968C4.61178 14.2504 5.76899 13.8897 6.22616 13.6789C6.29759 13.1503 6.50474 12.786 6.73333 12.5825C4.95823 12.3753 3.09028 11.6717 3.09028 8.52868C3.09028 7.6322 3.40101 6.90002 3.91175 6.32856C3.8296 6.12141 3.55459 5.28565 3.99032 4.15702C3.99032 4.15702 4.66179 3.93558 6.19044 4.99635C6.82976 4.81419 7.51194 4.7249 8.19412 4.72133C8.87272 4.7249 9.55847 4.81419 10.1978 4.99635C11.7264 3.93558 12.3943 4.15702 12.3943 4.15702C12.8301 5.28565 12.5551 6.12141 12.4729 6.32856C12.9837 6.90359 13.2944 7.63577 13.2944 8.52868C13.2944 11.6788 11.4229 12.3717 9.64062 12.5753C9.92635 12.8289 10.1835 13.3289 10.1835 14.0933C10.1835 15.1897 10.1728 16.0755 10.1728 16.3434C10.1728 16.5612 10.3157 16.8184 10.7228 16.7363C13.9087 15.6541 16.1981 12.5825 16.1981 8.96084C16.1981 4.42846 12.6158 0.756836 8.19769 0.756836Z" fill="white"/>
</svg>
