<svg width="16" height="17" viewBox="0 0 16 17" fill="none" xmlns="http://www.w3.org/2000/svg">
<path d="M15.9518 5.48817C15.9428 4.8151 15.8168 4.14873 15.5794 3.51885C15.3736 2.98756 15.0592 2.50504 14.6563 2.10215C14.2534 1.69925 13.7708 1.38482 13.2395 1.17896C12.6178 0.945553 11.9609 0.819347 11.2969 0.805713C10.442 0.7675 10.1709 0.756836 8.00078 0.756836C5.83063 0.756836 5.55247 0.756836 4.70378 0.805713C4.04008 0.819447 3.38351 0.945652 2.76202 1.17896C2.23064 1.38468 1.74805 1.69905 1.34513 2.10197C0.942218 2.50489 0.627843 2.98747 0.422123 3.51885C0.18825 4.14016 0.062317 4.79687 0.0497661 5.46062C0.0115528 6.31642 0 6.58746 0 8.75762C0 10.9278 -6.62118e-09 11.205 0.0497661 12.0546C0.0630962 12.7194 0.1884 13.3752 0.422123 13.9982C0.628188 14.5294 0.942797 15.0118 1.34585 15.4145C1.7489 15.8173 2.23153 16.1315 2.7629 16.3372C3.3827 16.58 4.03938 16.7152 4.70467 16.7371C5.56047 16.7753 5.83152 16.7868 8.00167 16.7868C10.1718 16.7868 10.45 16.7868 11.2987 16.7371C11.9627 16.724 12.6196 16.5981 13.2413 16.3647C13.7725 16.1586 14.2549 15.8441 14.6577 15.4412C15.0606 15.0384 15.3751 14.556 15.5812 14.0248C15.8149 13.4027 15.9402 12.7469 15.9536 12.0813C15.9918 11.2264 16.0033 10.9553 16.0033 8.78428C16.0016 6.61412 16.0016 6.33863 15.9518 5.48817ZM7.99545 12.8615C5.72576 12.8615 3.88708 11.0229 3.88708 8.75317C3.88708 6.48349 5.72576 4.64481 7.99545 4.64481C9.08506 4.64481 10.13 5.07765 10.9005 5.84812C11.671 6.61859 12.1038 7.66357 12.1038 8.75317C12.1038 9.84278 11.671 10.8878 10.9005 11.6582C10.13 12.4287 9.08506 12.8615 7.99545 12.8615ZM12.2673 5.45084C12.1415 5.45096 12.0169 5.42626 11.9006 5.37816C11.7843 5.33005 11.6786 5.25949 11.5897 5.17051C11.5007 5.08153 11.4301 4.97587 11.382 4.85959C11.3339 4.74331 11.3092 4.61868 11.3093 4.49284C11.3093 4.3671 11.3341 4.24258 11.3822 4.12641C11.4303 4.01023 11.5009 3.90467 11.5898 3.81575C11.6787 3.72684 11.7843 3.6563 11.9005 3.60818C12.0166 3.56006 12.1411 3.53529 12.2669 3.53529C12.3926 3.53529 12.5172 3.56006 12.6333 3.60818C12.7495 3.6563 12.8551 3.72684 12.944 3.81575C13.0329 3.90467 13.1034 4.01023 13.1516 4.12641C13.1997 4.24258 13.2244 4.3671 13.2244 4.49284C13.2244 5.0225 12.7961 5.45084 12.2673 5.45084Z" fill="white"/>
<path d="M7.99585 11.4219C9.46974 11.4219 10.6646 10.2271 10.6646 8.75318C10.6646 7.27929 9.46974 6.08447 7.99585 6.08447C6.52197 6.08447 5.32715 7.27929 5.32715 8.75318C5.32715 10.2271 6.52197 11.4219 7.99585 11.4219Z" fill="white"/>
</svg>
