<svg width="21" height="17" viewBox="0 0 21 17" fill="none" xmlns="http://www.w3.org/2000/svg">
<path d="M20.3213 2.65083C19.5975 2.97255 18.8186 3.18957 18.0012 3.28669C18.8357 2.78711 19.4756 1.99578 19.7773 1.05179C18.9968 1.51499 18.1327 1.85111 17.2123 2.03255C16.4757 1.24762 15.4258 0.756836 14.264 0.756836C12.0335 0.756836 10.2251 2.5653 10.2251 4.7962C10.2251 5.11233 10.2606 5.42047 10.3298 5.71662C6.97262 5.54796 3.99595 3.94013 2.00365 1.49621C1.65594 2.0925 1.45691 2.78631 1.45691 3.52728C1.45691 4.92849 2.16991 6.16504 3.25378 6.88922C2.59195 6.86804 1.96888 6.6862 1.42414 6.38365C1.42374 6.40044 1.42374 6.41762 1.42374 6.43481C1.42374 8.39155 2.81616 10.0238 4.66418 10.3954C4.32527 10.4874 3.96838 10.5369 3.59989 10.5369C3.33931 10.5369 3.08633 10.5117 2.83974 10.4642C3.3541 12.0688 4.84563 13.237 6.61293 13.2694C5.2305 14.3529 3.48918 14.9987 1.59639 14.9987C1.27067 14.9987 0.948944 14.9795 0.632812 14.942C2.42089 16.0886 4.54389 16.7568 6.82475 16.7568C14.2548 16.7568 18.3174 10.6021 18.3174 5.2642C18.3174 5.08915 18.3138 4.9145 18.3062 4.74105C19.0951 4.17273 19.7801 3.46094 20.3213 2.65083Z" fill="white"/>
</svg>
